<?xml version="1.0" encoding="utf-8"?>
<!-- Generator: Adobe Illustrator 14.0.0, SVG Export Plug-In . SVG Version: 6.00 Build 43363)  -->
<!DOCTYPE svg PUBLIC "-//W3C//DTD SVG 1.1//EN" "http://www.w3.org/Graphics/SVG/1.1/DTD/svg11.dtd">
<svg version="1.1" id="Layer_1" xmlns="http://www.w3.org/2000/svg" xmlns:xlink="http://www.w3.org/1999/xlink" x="0px" y="0px"
	 width="709.952px" height="232.647px" viewBox="0 0 709.952 232.647" enable-background="new 0 0 709.952 232.647"
	 xml:space="preserve">
<g>
	<path fill="#222222" d="M180.099,176.536c-18.202,23.974-47.005,39.459-79.427,39.459C45.625,215.995,1,171.371,1,116.324
		s44.625-99.672,99.672-99.672c32.422,0,61.224,15.485,79.426,39.458c-9.31-4.814-19.868-7.55-31.072-7.55
		c-37.424,0-67.763,30.339-67.763,67.763c0,37.425,30.339,67.762,67.763,67.762C160.23,184.086,170.789,181.351,180.099,176.536z"/>
	<circle fill="#222222" cx="592.512" cy="116.438" r="73.85"/>
	<path fill="#222222" d="M592.512,32.095c8.429,0,16.562,1.252,24.24,3.553h0.049L592.512,0l-24.286,35.648h0.047
		C575.952,33.347,584.084,32.095,592.512,32.095z"/>
	<path fill="#222222" d="M652.32,56.731c5.96,5.96,10.825,12.596,14.628,19.653l0.034,0.033l8.033-42.381l-42.382,8.033l0.034,0.034
		C639.725,45.907,646.36,50.772,652.32,56.731z"/>
	<path fill="#222222" d="M676.857,116.439c0,8.428-1.252,16.562-3.555,24.24l0.001,0.048l35.648-24.287l-35.649-24.288V92.2
		C675.605,99.879,676.856,108.012,676.857,116.439z"/>
	<path fill="#222222" d="M651.953,176.052c-5.96,5.96-12.595,10.825-19.654,14.628l-0.031,0.032l42.379,8.034l-8.032-42.38
		l-0.033,0.031C662.777,163.455,657.913,170.093,651.953,176.052z"/>
	<path fill="#222222" d="M552.691,42.103l0.033-0.033l-42.38-8.033l8.032,42.381l0.033-0.034
		c3.804-7.057,8.668-13.693,14.628-19.653C538.998,50.771,545.633,45.906,552.691,42.103z"/>
	<path fill="#222222" d="M511.722,92.202v-0.047l-35.648,24.287l35.648,24.288v-0.048c-2.302-7.678-3.553-15.813-3.553-24.241
		C508.169,108.014,509.42,99.881,511.722,92.202z"/>
	<path fill="#222222" d="M518.412,156.359l-0.034-0.035l-8.032,42.381l42.379-8.032l-0.032-0.034
		c-7.058-3.803-13.693-8.668-19.653-14.628C527.08,170.052,522.214,163.416,518.412,156.359z"/>
	<path fill="#222222" d="M568.56,197h-0.047l24.286,35.647L617.087,197h-0.045c-7.681,2.303-15.813,3.553-24.243,3.556
		C584.373,200.553,576.241,199.301,568.56,197z"/>
	<path fill="#222222" d="M386.929,48.811H272.837c-37.286,0-67.513,30.227-67.513,67.513c0,37.287,30.227,67.513,67.513,67.513
		h114.092c37.286,0,67.513-30.227,67.513-67.513C454.442,79.038,424.215,48.811,386.929,48.811z M386.929,175.196H272.837
		c-32.462,0-58.873-26.41-58.873-58.873s26.41-58.873,58.873-58.873h114.092c32.463,0,58.873,26.41,58.873,58.873
		S419.392,175.196,386.929,175.196z"/>
	<circle fill="#222222" cx="271.791" cy="116.324" r="49.239"/>
</g>
</svg>
