<?xml version="1.0" encoding="utf-8"?>
<!-- Generator: Adobe Illustrator 14.0.0, SVG Export Plug-In . SVG Version: 6.00 Build 43363)  -->
<!DOCTYPE svg PUBLIC "-//W3C//DTD SVG 1.1//EN" "http://www.w3.org/Graphics/SVG/1.1/DTD/svg11.dtd">
<svg version="1.1" id="Layer_1" xmlns="http://www.w3.org/2000/svg" xmlns:xlink="http://www.w3.org/1999/xlink" x="0px" y="0px"
	 width="132.004px" height="132px" viewBox="0 0 132.004 132" enable-background="new 0 0 132.004 132" xml:space="preserve">
<g>
	<circle cx="66.004" cy="66" r="16"/>
	<path d="M103.42,37.689c-0.872-2.24-1.912-3.84-3.592-5.52c-1.68-1.68-3.277-2.72-5.516-3.59c-1.692-0.657-4.232-1.439-8.912-1.653
		c-5.062-0.23-6.58-0.276-19.396-0.276c-1.602,0-3.028-0.002-4.306,0v-0.012c-8.946,0.01-10.662,0.07-15.09,0.27
		c-4.68,0.215-7.221,0.995-8.913,1.655c-2.24,0.872-3.84,1.912-5.52,3.592c-1.68,1.68-2.722,3.28-3.592,5.52
		c-0.657,1.692-1.439,4.232-1.653,8.912c-0.23,5.06-0.276,6.572-0.276,19.39S26.7,80.314,26.93,85.375
		c0.213,4.68,0.996,7.221,1.653,8.91c0.872,2.24,1.912,3.837,3.592,5.518c1.68,1.68,3.28,2.719,5.52,3.59
		c1.693,0.656,4.233,1.438,8.913,1.654c5.06,0.23,6.579,0.28,19.396,0.28c12.816,0,14.335-0.05,19.396-0.28
		c4.68-0.214,7.222-0.994,8.912-1.654c2.24-0.869,3.836-1.91,5.516-3.59c1.68-1.679,2.722-3.273,3.592-5.514
		c0.657-1.689,1.439-4.23,1.653-8.91c0.229-5.061,0.28-6.58,0.28-19.39c0-12.81-0.052-14.33-0.28-19.39
		C104.859,41.919,104.077,39.379,103.42,37.689z M66.004,90.645c-13.613,0-24.65-11.031-24.65-24.645
		c0-13.613,11.037-24.65,24.65-24.65C79.616,41.35,90.65,52.387,90.65,66C90.65,79.613,79.617,90.645,66.004,90.645z M91.626,46.138
		c-3.181,0-5.76-2.58-5.76-5.76c0-3.181,2.579-5.758,5.76-5.758v-0.002c3.181,0,5.761,2.58,5.761,5.76
		C97.387,43.558,94.807,46.138,91.626,46.138z"/>
	<path d="M130.896,29.172c-0.41-5.22-1.306-8.73-3.127-12.44c-1.494-3.037-3.154-5.305-5.564-7.624
		C117.904,5,112.645,2.5,106.376,1.596C103.339,1.157,102.734,1.027,87.193,1H66.034c-27.142,0-35.08,0.028-36.623,0.156
		c-5.57,0.463-9.036,1.34-12.812,3.22c-2.91,1.445-5.205,3.12-7.47,5.468c-4.125,4.282-6.625,9.55-7.53,15.813
		c-0.44,3.04-0.568,3.66-0.594,19.188c-0.01,5.176,0,11.988,0,21.125c0,27.12,0.03,35.051,0.16,36.59c0.45,5.42,1.3,8.83,3.1,12.561
		c3.44,7.141,10.01,12.5,17.75,14.5c2.68,0.689,5.64,1.07,9.44,1.25c1.61,0.07,18.02,0.119,34.44,0.119
		c16.419,0,32.839-0.021,34.41-0.1c4.4-0.207,6.955-0.551,9.78-1.279c7.79-2.01,14.24-7.291,17.75-14.53
		c1.765-3.64,2.66-7.181,3.065-12.317c0.088-1.119,0.125-18.977,0.125-36.81C131.025,48.116,130.984,30.292,130.896,29.172z
		 M113.708,85.788c-0.24,5.108-1.049,8.596-2.229,11.649c-1.229,3.155-2.869,5.834-5.539,8.502c-2.668,2.67-5.342,4.313-8.498,5.541
		c-3.053,1.186-6.545,1.996-11.655,2.229c-5.12,0.232-6.751,0.29-19.788,0.29c-13.035,0-14.67-0.058-19.79-0.29
		c-5.109-0.232-8.598-1.042-11.652-2.229c-3.155-1.228-5.833-2.871-8.5-5.541c-2.669-2.668-4.309-5.347-5.536-8.502
		c-1.186-3.053-1.995-6.541-2.23-11.65C18.058,80.667,18,79.036,18,66s0.06-14.673,0.289-19.793c0.23-5.108,1.04-8.597,2.23-11.65
		c1.23-3.156,2.87-5.834,5.54-8.502c2.668-2.669,5.346-4.309,8.503-5.535c3.052-1.187,6.54-1.996,11.65-2.23
		C51.331,18.057,52.967,18,65.996,18c-0.003,0-0.005,0-0.008,0h0.016c-0.003,0-0.005,0-0.008,0c13.034,0,14.664,0.057,19.783,0.29
		c5.109,0.234,8.599,1.043,11.66,2.23c3.16,1.225,5.83,2.865,8.5,5.535c2.67,2.668,4.31,5.346,5.539,8.503
		c1.18,3.052,1.989,6.54,2.229,11.65c0.229,5.12,0.29,6.756,0.29,19.792S113.938,80.668,113.708,85.788z"/>
</g>
<path d="M-2.301,139.176c-3.261,1.365-6.846,5.223-7.979,10.063c-1.434,6.134,4.533,8.727,5.022,7.877
	c0.576-0.999-1.069-1.337-1.408-4.521c-0.438-4.109,1.473-8.703,3.878-10.718c0.447-0.375,0.426,0.146,0.426,1.11
	c0,1.724-0.095,17.195-0.095,20.426c0,4.369-0.181,5.749-0.505,7.111c-0.328,1.383-0.856,2.315-0.456,2.677
	c0.447,0.401,2.355-0.556,3.46-2.097c1.325-1.851,1.789-4.071,1.872-6.482c0.101-2.908,0.096-7.521,0.101-10.153
	c0.004-2.413,0.041-9.48-0.042-13.729C1.953,139.695-0.937,138.604-2.301,139.176 M113.503,159.625
	c-0.104,2.271-0.606,4.048-1.231,5.3c-1.209,2.425-3.715,3.179-4.78-0.308c-0.58-1.899-0.606-5.073-0.189-7.725
	c0.425-2.701,1.609-4.74,3.573-4.558C112.811,152.518,113.716,155.014,113.503,159.625L113.503,159.625z M80.863,173.719
	c-0.025,3.774-0.619,7.084-1.893,8.045c-1.808,1.363-4.236,0.342-3.732-2.412c0.443-2.438,2.549-4.928,5.631-7.969
	C80.869,171.383,80.875,172.077,80.863,173.719L80.863,173.719z M80.371,159.604c-0.109,2.068-0.646,4.147-1.232,5.321
	c-1.207,2.425-3.732,3.185-4.779-0.308c-0.715-2.385-0.543-5.473-0.189-7.416c0.46-2.523,1.573-4.864,3.573-4.864
	C79.686,152.337,80.645,154.47,80.371,159.604L80.371,159.604z M61.463,159.57c-0.118,2.191-0.545,4.023-1.231,5.354
	c-1.241,2.408-3.697,3.173-4.779-0.308c-0.781-2.51-0.515-5.93-0.19-7.778c0.482-2.741,1.689-4.687,3.573-4.502
	C60.77,152.525,61.71,155.014,61.463,159.57L61.463,159.57z M148.111,162.131c-0.473,0-0.688,0.487-0.867,1.309
	c-0.62,2.854-1.271,3.5-2.11,3.5c-0.938,0-1.78-1.414-1.997-4.242c-0.171-2.225-0.144-6.32,0.074-10.395
	c0.044-0.837-0.188-1.664-2.432-2.48c-0.967-0.352-2.37-0.866-3.069,0.82c-1.976,4.769-2.748,8.553-2.931,10.092
	c-0.01,0.08-0.106,0.096-0.123-0.09c-0.116-1.232-0.375-3.471-0.407-8.172c-0.007-0.918-0.201-1.699-1.213-2.339
	c-0.658-0.416-2.653-1.147-3.371-0.274c-0.623,0.713-1.345,2.634-2.093,4.912c-0.608,1.851-1.033,3.104-1.033,3.104
	s0.009-4.995,0.016-6.891c0.004-0.715-0.486-0.951-0.635-0.995c-0.665-0.192-1.977-0.517-2.533-0.517
	c-0.687,0-0.854,0.385-0.854,0.943c0,0.073-0.109,6.575-0.109,11.122c0,0.196,0,0.413,0.002,0.644
	c-0.38,2.088-1.611,4.926-2.949,4.926c-1.342,0-1.975-1.188-1.975-6.606c0-3.162,0.096-4.537,0.143-6.824
	c0.026-1.317,0.08-2.329,0.076-2.559c-0.011-0.704-1.229-1.06-1.794-1.188c-0.569-0.134-1.063-0.185-1.45-0.162
	c-0.547,0.03-0.933,0.39-0.933,0.883c0,0.265,0.002,0.768,0.002,0.768c-0.704-1.105-1.836-1.876-2.589-2.1
	c-2.029-0.604-4.146-0.068-5.744,2.166c-1.27,1.775-2.033,3.787-2.335,6.677c-0.221,2.112-0.147,4.254,0.242,6.065
	c-0.472,2.045-1.351,2.883-2.312,2.883c-1.396,0-2.406-2.278-2.289-6.219c0.078-2.59,0.596-4.408,1.162-7.039
	c0.241-1.121,0.045-1.707-0.447-2.271c-0.451-0.517-1.414-0.78-2.797-0.456c-0.985,0.23-2.396,0.48-3.684,0.671
	c0,0,0.077-0.31,0.143-0.856c0.334-2.869-2.783-2.637-3.777-1.721c-0.594,0.547-0.998,1.192-1.152,2.354
	c-0.242,1.841,1.26,2.709,1.26,2.709c-0.492,2.256-1.701,5.201-2.946,7.332c-0.669,1.141-1.179,1.986-1.839,2.885
	c-0.002-0.334-0.004-0.669-0.006-1.002c-0.016-4.741,0.049-8.473,0.076-9.816c0.026-1.318,0.079-2.304,0.077-2.533
	c-0.008-0.515-0.309-0.709-0.934-0.955c-0.554-0.217-1.208-0.367-1.886-0.42c-0.855-0.067-1.373,0.387-1.358,0.924
	c0.003,0.102,0.003,0.724,0.003,0.724c-0.704-1.106-1.836-1.876-2.59-2.101c-2.029-0.602-4.146-0.066-5.743,2.166
	c-1.271,1.776-2.101,4.269-2.335,6.654c-0.221,2.227-0.18,4.115,0.119,5.709c-0.322,1.594-1.25,3.262-2.299,3.262
	c-1.341,0-2.104-1.187-2.104-6.605c0-3.162,0.095-4.538,0.141-6.824c0.028-1.316,0.08-2.328,0.077-2.559
	c-0.01-0.704-1.227-1.059-1.793-1.189c-0.593-0.138-1.104-0.188-1.497-0.158c-0.519,0.037-0.883,0.502-0.883,0.849v0.798
	c-0.705-1.105-1.837-1.876-2.59-2.1c-2.029-0.603-4.135-0.061-5.744,2.166c-1.049,1.451-1.898,3.061-2.335,6.623
	c-0.126,1.029-0.183,1.992-0.175,2.895c-0.418,2.559-2.266,5.507-3.777,5.507c-0.884,0-1.727-1.715-1.727-5.37
	c0-4.871,0.302-11.806,0.353-12.474c0,0,1.91-0.033,2.28-0.037c0.953-0.011,1.815,0.013,3.084-0.053
	c0.637-0.032,1.25-2.316,0.593-2.599c-0.297-0.129-2.401-0.24-3.235-0.26c-0.702-0.016-2.654-0.16-2.654-0.16
	s0.175-4.603,0.216-5.089c0.035-0.405-0.49-0.612-0.791-0.739c-0.731-0.311-1.385-0.457-2.16-0.617
	c-1.071-0.221-1.557-0.006-1.652,0.898c-0.143,1.372-0.217,5.391-0.217,5.391c-0.786,0-3.471-0.152-4.258-0.152
	c-0.73,0-1.519,3.143-0.509,3.182c1.162,0.045,3.187,0.084,4.53,0.123c0,0-0.06,7.049-0.06,9.225c0,0.231,0.002,0.455,0.002,0.672
	c-0.739,3.852-3.341,5.932-3.341,5.932c0.559-2.548-0.583-4.461-2.639-6.081c-0.758-0.597-2.253-1.727-3.927-2.965
	c0,0,0.969-0.955,1.829-2.877c0.609-1.36,0.635-2.919-0.859-3.263c-2.47-0.568-4.506,1.246-5.114,3.183
	c-0.47,1.5-0.22,2.613,0.703,3.771c0.067,0.084,0.14,0.17,0.216,0.258c-0.558,1.074-1.324,2.521-1.973,3.644
	c-1.8,3.116-3.161,5.579-4.188,5.579c-0.822,0-0.811-2.502-0.811-4.844c0-2.02,0.149-5.055,0.269-8.197
	c0.039-1.04-0.48-1.633-1.352-2.169c-0.529-0.325-1.659-0.966-2.313-0.966c-0.979,0-3.805,0.133-6.476,7.855
	c-0.336,0.974-0.997,2.748-0.997,2.748l0.057-9.289c0-0.217-0.116-0.428-0.381-0.571c-0.45-0.244-1.652-0.743-2.72-0.743
	c-0.509,0-0.764,0.236-0.764,0.708l-0.093,14.53c0,1.104,0.029,2.394,0.138,2.955c0.109,0.564,0.285,1.023,0.503,1.297
	c0.218,0.271,0.47,0.479,0.886,0.565c0.387,0.079,2.505,0.353,2.615-0.458c0.132-0.97,0.137-2.019,1.25-5.932
	c1.731-6.092,3.989-9.064,5.05-10.12c0.186-0.185,0.397-0.194,0.387,0.106c-0.045,1.336-0.205,4.672-0.312,7.509
	c-0.288,7.587,1.093,8.993,3.065,8.993c1.509,0,3.636-1.5,5.917-5.295c1.421-2.365,2.802-4.686,3.793-6.356
	c0.691,0.642,1.466,1.329,2.242,2.063c1.801,1.709,2.393,3.334,2,4.875c-0.3,1.179-1.43,2.393-3.441,1.213
	c-0.586-0.346-0.836-0.61-1.426-0.998c-0.317-0.209-0.8-0.271-1.09-0.053c-0.753,0.566-1.184,1.289-1.43,2.184
	c-0.239,0.871,0.632,1.331,1.535,1.732c0.778,0.346,2.45,0.659,3.516,0.694c4.153,0.14,7.481-2.005,9.797-7.537
	c0.415,4.777,2.179,7.479,5.245,7.479c2.05,0,4.105-2.648,5.004-5.254c0.258,1.062,0.64,1.985,1.133,2.768
	c2.362,3.743,6.945,2.938,9.248-0.241c0.712-0.981,0.82-1.336,0.82-1.336c0.335,3.002,2.752,4.052,4.136,4.052
	c1.549,0,3.15-0.732,4.271-3.259c0.131,0.274,0.274,0.535,0.432,0.784c2.362,3.743,6.945,2.938,9.248-0.241
	c0.108-0.149,0.203-0.284,0.285-0.405l0.065,1.972c0,0-1.313,1.204-2.119,1.944c-3.547,3.254-6.245,5.725-6.443,8.601
	c-0.255,3.667,2.721,5.03,4.971,5.209c2.389,0.188,4.436-1.131,5.692-2.979c1.106-1.625,1.83-5.125,1.776-8.582
	c-0.021-1.384-0.055-3.144-0.082-5.029c1.246-1.448,2.65-3.278,3.945-5.422c1.408-2.334,2.92-5.469,3.693-7.909
	c0,0,1.313,0.011,2.715-0.081c0.447-0.029,0.576,0.063,0.493,0.392c-0.101,0.396-1.771,6.839-0.245,11.13
	c1.043,2.938,3.395,3.883,4.789,3.883c1.632,0,3.193-1.233,4.029-3.063c0.102,0.204,0.207,0.401,0.322,0.584
	c2.361,3.743,6.928,2.933,9.246-0.241c0.523-0.716,0.82-1.335,0.82-1.335c0.497,3.104,2.913,4.065,4.296,4.065
	c1.44,0,2.81-0.592,3.919-3.217c0.047,1.155,0.12,2.102,0.235,2.398c0.069,0.184,0.479,0.412,0.776,0.521
	c1.319,0.488,2.664,0.258,3.16,0.158c0.346-0.07,0.614-0.348,0.651-1.062c0.096-1.875,0.037-5.024,0.604-7.365
	c0.953-3.928,1.844-5.452,2.267-6.206c0.235-0.424,0.503-0.492,0.513-0.045c0.02,0.904,0.064,3.563,0.434,7.135
	c0.271,2.627,0.635,4.178,0.914,4.67c0.795,1.404,1.776,1.472,2.576,1.472c0.51,0,1.572-0.142,1.478-1.034
	c-0.046-0.438,0.034-3.13,0.976-7c0.615-2.527,1.639-4.811,2.008-5.646c0.137-0.308,0.199-0.064,0.197-0.018
	c-0.076,1.74-0.253,7.434,0.456,10.547c0.962,4.219,3.743,4.689,4.712,4.689c2.068,0,3.76-1.572,4.329-5.713
	c0.138-0.998-0.065-1.767-0.674-1.767"/>
</svg>
