<?xml version="1.0" encoding="utf-8"?>
<!-- Generator: Adobe Illustrator 14.0.0, SVG Export Plug-In . SVG Version: 6.00 Build 43363)  -->
<!DOCTYPE svg PUBLIC "-//W3C//DTD SVG 1.1//EN" "http://www.w3.org/Graphics/SVG/1.1/DTD/svg11.dtd">
<svg version="1.1" id="Layer_1" xmlns="http://www.w3.org/2000/svg" xmlns:xlink="http://www.w3.org/1999/xlink" x="0px" y="0px"
	 width="216px" height="216px" viewBox="0 0 216 216" enable-background="new 0 0 216 216" xml:space="preserve">
<path d="M108,40.614c37.216,0,67.386,30.17,67.386,67.387c0,37.216-30.17,67.385-67.386,67.385
	c-37.216,0-67.386-30.169-67.386-67.385C40.614,70.784,70.784,40.614,108,40.614z M108,35.802c7.214,0,14.176,1.072,20.75,3.042
	h0.041L108,8.329L87.21,38.843h0.041C93.824,36.874,100.786,35.802,108,35.802z M159.195,56.891
	c5.102,5.102,9.267,10.782,12.521,16.823l0.029,0.028l6.876-36.278l-36.278,6.876l0.028,0.029
	C148.414,47.625,154.094,51.79,159.195,56.891z M180.199,108c0,7.215-1.072,14.177-3.042,20.75l0.001,0.04l30.514-20.79
	l-30.515-20.79l0,0.041C179.126,93.825,180.198,100.787,180.199,108z M158.881,159.029c-5.102,5.102-10.782,9.266-16.824,12.521
	l-0.027,0.028l36.277,6.876l-6.876-36.277l-0.028,0.028C168.146,148.247,163.982,153.927,158.881,159.029z M73.913,44.369
	l0.029-0.028l-36.278-6.876l6.876,36.278l0.029-0.029c3.255-6.041,7.42-11.721,12.521-16.823
	C62.191,51.789,67.872,47.624,73.913,44.369z M38.844,87.253v-0.041l-30.515,20.79l30.515,20.791v-0.041
	c-1.97-6.573-3.042-13.535-3.042-20.75C35.802,100.789,36.874,93.827,38.844,87.253z M44.57,142.171l-0.029-0.028l-6.876,36.277
	l36.277-6.876l-0.027-0.029c-6.041-3.255-11.722-7.419-16.824-12.521C51.99,153.893,47.825,148.212,44.57,142.171z M87.497,176.961
	h-0.04l20.79,30.514l20.79-30.514l-0.039-0.001c-6.575,1.971-13.536,3.042-20.751,3.043
	C101.032,180.002,94.071,178.93,87.497,176.961z"/>
</svg>
