<?xml version="1.0" encoding="utf-8"?>
<!-- Generator: Adobe Illustrator 14.0.0, SVG Export Plug-In . SVG Version: 6.00 Build 43363)  -->
<!DOCTYPE svg PUBLIC "-//W3C//DTD SVG 1.1//EN" "http://www.w3.org/Graphics/SVG/1.1/DTD/svg11.dtd">
<svg version="1.1" id="Layer_1" xmlns="http://www.w3.org/2000/svg" xmlns:xlink="http://www.w3.org/1999/xlink" x="0px" y="0px"
	 width="184.868px" height="205.263px" viewBox="0 0 184.868 205.263" enable-background="new 0 0 184.868 205.263"
	 xml:space="preserve">
<circle stroke="#000000" cx="-398.236" cy="68.915" r="99.671"/>
<path d="M181.85,162.68c-18.202,23.974-47.004,39.459-79.427,39.459c-55.047,0-99.671-44.624-99.671-99.671
	S47.376,2.796,102.423,2.796c32.422,0,61.224,15.485,79.426,39.458c-9.31-4.814-19.868-7.55-31.072-7.55
	c-37.424,0-67.763,30.339-67.763,67.763c0,37.425,30.339,67.762,67.763,67.762C161.981,170.229,172.54,167.494,181.85,162.68z
	 M150.876,119.741l-2.429-14.162l10.29-10.03l-14.22-2.066l-6.359-12.885l-6.359,12.885l-14.22,2.066l10.29,10.03l-2.429,14.162
	l12.719-6.687L150.876,119.741z"/>
</svg>
