<?xml version="1.0" encoding="utf-8"?>
<!-- Generator: Adobe Illustrator 14.0.0, SVG Export Plug-In . SVG Version: 6.00 Build 43363)  -->
<!DOCTYPE svg PUBLIC "-//W3C//DTD SVG 1.1//EN" "http://www.w3.org/Graphics/SVG/1.1/DTD/svg11.dtd">
<svg version="1.1" id="Layer_1" xmlns="http://www.w3.org/2000/svg" xmlns:xlink="http://www.w3.org/1999/xlink" x="0px" y="0px"
	 width="449.059px" height="899.596px" viewBox="0 0 449.059 899.596" enable-background="new 0 0 449.059 899.596"
	 xml:space="preserve">
<path d="M287.297,546.839c-0.354,18.472-7.197,38.278-15.246,51.619c-8.563,14.192-33.523,30.696-47.501,48.168
	c-20.666,25.834-21.308,62-21.308,62c-25.941-31.583-40.055-61.666-44.691-94.666c-3.152-22.433-3.396-47.649,1.751-69.019
	c1.786,2.288,3.586,4.476,5.351,6.619c4.673,5.673,9.086,11.031,12.641,17.465c11.81,21.368,26.939,31.756,46.257,31.756
	s34.447-10.388,46.257-31.756c3.555-6.434,7.968-11.792,12.641-17.465C284.719,550.017,286.008,548.449,287.297,546.839z
	 M158.989,430.971c-18.577-10.595-32.992-25.775-36.91-28.075c-13.061-7.666-27.027-3.853-45.036-5.843
	c-17.203-1.901-44.093-5.499-44.093-5.499s13.909,43.239,34.473,60.056c-11.947-17.608-16.891-32.974-20.707-46.847
	c0,0,29.516-1.992,44.955,5.47c15.439,7.461,38.588,21.942,40.848,34.088c1.53,8.229,4.662,12.738,11.388,15.545
	C147.03,449.208,152.208,439.424,158.989,430.971z M373.547,397.053c-16.246,2.24-31.975-1.824-45.035,5.843
	c-3.99,2.343-18.865,18.05-37.94,28.66c6.663,8.456,11.733,18.213,14.771,28.828c7.656-2.763,11.103-7.308,12.73-16.063
	c2.26-12.146,25.408-26.627,40.848-34.089c15.438-7.461,44.953-5.469,44.953-5.469c-3.814,13.873-8.652,29.047-20.705,46.847
	c19.031-17.316,34.471-60.056,34.471-60.056S390.694,394.689,373.547,397.053z M228.686,734.077
	c3.086-5.449,19.464-19.169,25.854-32.512c6.391-13.344,6.201-32.7,8.457-44.729c2.256-12.027,10.713-19.169,10.713-19.169
	c-19.733-0.264-43.413,20.297-54.125,41.909c-10.713,21.612-3.947,50.742,5.262,67.092
	C224.846,746.668,225.598,739.527,228.686,734.077z M415.918,181.39c-9.695-24.266-13.98-49.651-13.256-74.648
	c0.104-3.555,0.576-5.325,0.607-10.637s-3.969-10.165-3.969-10.165s-5.834,4.86-8.043,8.481c-2.207,3.622-2.715,10.514-2.766,15.797
	c-0.133,13.638,1.137,27.363,3.83,40.966C399.09,162.055,406.985,172.177,415.918,181.39z M381.153,292.485
	c2.131-3.663,4.156-7.427,6.035-11.25c0.822-1.673,1.607-3.358,2.375-5.048c-3.033-6.602-6.406-13.02-10.111-19.218
	c-16.793-28.096-26.355-60.903-26.691-95.674c-0.061-6.263-2.736-10.728-2.736-10.728s-10.473,6.227-10.742,25.673
	c-0.398,28.948,12.648,62.032,28.307,88.371C372.85,273.461,377.387,282.787,381.153,292.485z M415.918,181.39
	c-9.695-24.266-13.98-49.651-13.256-74.648c0.104-3.555,0.576-5.325,0.607-10.637s-3.969-10.165-3.969-10.165
	s-5.834,4.86-8.043,8.481c-2.207,3.622-2.715,10.514-2.766,15.797c-0.133,13.638,1.137,27.363,3.83,40.966
	C399.09,162.055,406.985,172.177,415.918,181.39z M381.153,292.485c2.131-3.663,4.156-7.427,6.035-11.25
	c0.822-1.673,1.607-3.358,2.375-5.048c-3.033-6.602-6.406-13.02-10.111-19.218c-16.793-28.096-26.355-60.903-26.691-95.674
	c-0.061-6.263-2.736-10.728-2.736-10.728s-10.473,6.227-10.742,25.673c-0.398,28.948,12.648,62.032,28.307,88.371
	C372.85,273.461,377.387,282.787,381.153,292.485z M258.493,399.793c-1.646,3.384,1.461,6.488,0,9.974
	c4.334,2.004,8.461,4.376,12.342,7.081c1.111-2.723,12.516-4.07,12.516-4.07s-3.879-6.503,0.002-18.315
	c1.451-0.44,2.898-0.892,4.334-1.365c33.475-11.029,63.076-30.583,86.234-56.094c5.863-3.1,11.512-6.47,16.955-10.07
	c4.334-2.867,8.527-5.892,12.584-9.052c16.666-12.981,28.664-25.981,42.588-45.393c5.879-8.195,1.338-16.072,1.338-16.072
	s-3.127,0.558-6.98,2.843s-6.275,5.674-6.275,5.674c-9.611,14.034-21.197,26.816-34.516,37.926c-0.453,0.377-0.891,0.77-1.348,1.143
	c0.379-0.64,0.738-1.292,1.109-1.936c14.611-25.34,23.898-54.138,26.266-84.884c0.4-5.185,0.605-10.423,0.605-15.71
	c0-0.574-0.012-1.146-0.016-1.718c-5.184-4.289-10.082-8.828-14.707-13.579c-13.027-13.382-23.824-28.486-32.199-44.729
	c0,0-3.023,3.722-4.023,10.597c-0.521,3.577-0.266,10.719,4.715,17.944c9.076,13.161,19.807,25.33,32.068,36.196
	c-0.688,27.912-7.482,54.305-19.082,77.91c-2.736,5.568-5.734,10.984-8.99,16.226c-5.584,8.99-11.902,17.476-18.881,25.367
	c-8.746,9.893-18.18,17.336-29.154,24.719c-16.372,11.013-32.247,17.888-51.383,22.855c-3.955-21.49-4.041-31.207-0.586-58.147
	c2.543-19.82-2.564-19.311-2.564-19.311s-9.893,7.925-11.273,16.548c-3.314,20.722-8.727,47.174-4.17,70.927L258.493,399.793z
	 M183.059,383.278c4.555-23.752-0.855-50.205-4.172-70.927c-1.379-8.624-11.273-16.548-11.273-16.548s-5.105-0.509-2.564,19.311
	c3.455,26.94,3.371,36.657-0.584,58.147c-18.485-5.217-34.985-11.717-51.383-22.855c-10.942-7.432-20.41-14.826-29.156-24.719
	c-6.977-7.892-13.297-16.377-18.881-25.367c-3.256-5.241-6.253-10.657-8.99-16.226c-11.6-23.605-18.394-49.998-19.082-77.91
	c12.262-10.867,22.993-23.036,32.068-36.196c4.982-7.225,5.236-14.367,4.717-17.944c-1-6.875-4.025-10.597-4.025-10.597
	c-8.375,16.243-19.17,31.347-32.198,44.729c-4.625,4.751-9.524,9.291-14.707,13.579c-0.005,0.573-0.017,1.144-0.017,1.718
	c0,5.287,0.206,10.525,0.605,15.71c2.368,30.746,11.655,59.543,26.267,84.884c0.371,0.644,0.73,1.296,1.108,1.936
	c-0.457-0.374-0.895-0.766-1.347-1.143c-13.319-11.11-24.904-23.892-34.516-37.926c0,0-2.422-3.39-6.275-5.674
	s-6.981-2.843-6.981-2.843s-4.54,7.877,1.338,16.072C16.935,291.9,28.934,304.9,45.599,317.881c4.058,3.16,8.25,6.185,12.584,9.052
	c5.443,3.6,11.091,6.97,16.957,10.07c23.158,25.512,52.76,45.065,86.232,56.094c1.438,0.474,2.885,0.925,4.336,1.365
	c3.879,11.813,0.002,18.315,0.002,18.315s11.404,1.348,12.514,4.07c3.883-2.705,8.01-5.077,12.342-7.081
	c-1.459-3.485,1.72-6.916,0.073-10.3L183.059,383.278z M56.735,151.185c2.694-13.603,3.964-27.328,3.831-40.966
	c-0.052-5.283-0.559-12.176-2.767-15.797s-8.042-8.481-8.042-8.481s-4,4.853-3.969,10.165s0.504,7.082,0.606,10.637
	c0.726,24.998-3.56,50.383-13.255,74.648C42.073,172.177,49.968,162.055,56.735,151.185z M59.495,276.187
	c0.768,1.69,1.554,3.375,2.376,5.048c1.879,3.823,3.902,7.586,6.033,11.25c3.768-9.698,8.303-19.023,13.566-27.875
	c15.658-26.338,28.705-59.423,28.305-88.371c-0.268-19.446-10.74-25.673-10.74-25.673s-2.678,4.465-2.738,10.728
	c-0.336,34.771-9.896,67.579-26.691,95.674C65.901,263.167,62.53,269.585,59.495,276.187z M184.657,53.106
	c2.953,6.002,10.214,8.475,16.216,5.521c6.003-2.954,8.476-10.214,5.522-16.217c-2.954-6.003-10.215-8.475-16.218-5.521
	C184.174,39.843,181.704,47.103,184.657,53.106z M149.799,70.256c2.953,6.002,10.214,8.475,16.216,5.521
	c6.003-2.954,8.476-10.214,5.522-16.217c-2.954-6.003-10.215-8.475-16.218-5.521C149.318,56.993,146.846,64.253,149.799,70.256z
	 M114.942,87.406c2.953,6.002,10.214,8.475,16.217,5.522c6.003-2.954,8.475-10.215,5.521-16.217
	c-2.953-6.003-10.214-8.475-16.217-5.522S111.989,81.403,114.942,87.406z M179.769,87.172c2.953,6.002,10.213,8.475,16.218,5.521
	c6.003-2.954,8.475-10.214,5.521-16.217c-2.954-6.003-10.214-8.475-16.218-5.521C179.288,73.909,176.815,81.169,179.769,87.172z
	 M144.913,104.322c2.953,6.003,10.213,8.475,16.217,5.521c6.003-2.954,8.475-10.215,5.521-16.217
	c-2.953-6.003-10.214-8.476-16.217-5.522C144.43,91.059,141.958,98.319,144.913,104.322z M259.872,36.89
	c-6.004-2.954-13.264-0.481-16.217,5.521c-2.953,6.002-0.482,13.263,5.521,16.217c6.002,2.953,13.264,0.481,16.217-5.521
	C268.346,47.103,265.874,39.843,259.872,36.89z M294.729,54.04c-6.004-2.954-13.264-0.481-16.217,5.521
	c-2.953,6.002-0.482,13.263,5.521,16.217c6.002,2.953,13.262,0.481,16.215-5.521C303.204,64.253,300.731,56.993,294.729,54.04z
	 M329.586,71.189c-6.004-2.953-13.264-0.481-16.219,5.522c-2.953,6.002-0.48,13.263,5.521,16.217
	c6.004,2.953,13.264,0.48,16.217-5.522C338.061,81.403,335.588,74.143,329.586,71.189z M264.758,70.955
	c-6.004-2.954-13.264-0.482-16.217,5.521s-0.482,13.263,5.521,16.217c6.004,2.954,13.264,0.481,16.217-5.521
	C273.233,81.169,270.762,73.909,264.758,70.955z M299.616,88.104c-6.004-2.954-13.264-0.481-16.219,5.522
	c-2.953,6.002-0.48,13.263,5.523,16.217c6.002,2.954,13.264,0.481,16.217-5.521S305.62,91.059,299.616,88.104z M241.506,562.107
	c-2.438-1.509-8.254-6.734-9.987-9.173c-1.733-2.438-5.263-4.645-6.933-4.646c-1.67,0.001-5.199,2.208-6.933,4.646
	c-1.733,2.438-7.549,7.664-9.988,9.173c-2.44,1.51-5.522,2.439-6.421,6.388s-1.412,6.039,1.799,10.335
	c3.21,4.296,7.832,4.646,7.832,4.646l0.771-5.601h3.054c0,0,3.98,4.6,9.887,4.601c5.905-0.001,9.886-4.601,9.886-4.601h3.055
	l0.771,5.601c0,0,4.622-0.35,7.832-4.646c3.211-4.296,2.697-6.387,1.799-10.335C247.029,564.546,243.946,563.617,241.506,562.107z
	 M299.229,483.459c0,45.706-23.152,54.68-36.615,79.039c-1.566,2.835-3.158,5.363-4.76,7.639c0.229-2.503,0.156-4.937-0.296-7.101
	c-1.284-6.154-16.151-16.839-21.031-21.367c-4.877-4.526-8.214-9.283-11.935-9.289c-0.002,0-0.003-0.001-0.004-0.001
	s-0.002,0-0.002,0s-0.001,0-0.002,0s-0.002,0.001-0.003,0.001c-3.722,0.006-7.06,4.763-11.936,9.289
	c-4.88,4.528-19.748,15.213-21.032,21.367c-0.44,2.113-0.583,4.522-0.436,7.001c-1.579-2.25-3.147-4.744-4.691-7.539
	c-13.463-24.359-36.615-33.333-36.615-79.039c0-41.244,33.435-74.679,74.679-74.679
	C265.795,408.781,299.229,442.215,299.229,483.459z M203.493,487.46c-1.166-8.333-6.333-13.834-10.5-17.167
	c-4.166-3.333-15.166-4.834-19.333-3s-11,8.168-13.5,15.834s-4.834,15.333-1.667,22.333s12,14.833,19.334,13.833
	c7.333-1,9.334-7.499,11.834-10.333s4.78-4.358,5.955-7.146c0,0-1.955-0.521-2.955-1.521l-1.987-2.318
	c-0.385,3.92-2.358,7.136-5.513,8.272c-4.937,1.778-10.894-2.208-13.306-8.901s-0.366-13.563,4.569-15.343
	c4.052-1.46,8.975,0.854,11.694,5.582c2.708,4.708,7.041,7.708,9.708,9.208C200.493,498.293,204.66,495.793,203.493,487.46z
	 M290.608,505.46c3.167-7,0.833-14.667-1.667-22.333s-9.333-14-13.5-15.834s-15.167-0.333-19.333,3
	c-4.167,3.333-9.334,8.834-10.5,17.167c-1.167,8.333,3,10.833,5.666,9.333c2.667-1.5,7-4.5,9.708-9.208
	c2.72-4.728,7.643-7.042,11.694-5.582c4.936,1.779,6.981,8.649,4.569,15.343s-8.369,10.68-13.306,8.901
	c-3.154-1.137-5.128-4.353-5.513-8.272l-1.987,2.318c-1,1-2.955,1.521-2.955,1.521c1.175,2.787,3.455,4.312,5.955,7.146
	s4.501,9.333,11.834,10.333C278.608,520.293,287.441,512.46,290.608,505.46z M215.251,0C154.449,2.762,100.666,32.426,65.528,77.383
	l11.426,8.283c32.561-41.434,82.19-68.807,138.298-71.548V0z M233.849,0v14.118c56.21,2.747,105.919,30.214,138.476,71.776
	l11.426-8.283C348.618,32.525,294.755,2.766,233.849,0z"/>
<path d="M37.263,800.614h-7.605v20.613H15.609v-58.278h22.935c6.911,0,12.314,1.532,16.211,4.598
	c3.896,3.065,5.844,7.397,5.844,12.995c0,4.052-0.82,7.41-2.461,10.076c-1.641,2.665-4.21,4.825-7.705,6.478L62.6,820.626v0.601
	H47.55L37.263,800.614z M29.658,789.806h8.886c2.668,0,4.676-0.701,6.024-2.106c1.347-1.404,2.021-3.364,2.021-5.879
	c0-2.514-0.68-4.487-2.041-5.918c-1.361-1.431-3.362-2.147-6.004-2.147h-8.886V789.806z"/>
<path d="M115.437,793.289c0,5.684-1.055,10.714-3.162,15.09c-2.107,4.377-5.103,7.745-8.985,10.106
	c-3.883,2.362-8.306,3.543-13.269,3.543s-9.366-1.141-13.209-3.423c-3.842-2.281-6.838-5.543-8.986-9.786
	c-2.148-4.243-3.276-9.112-3.382-14.609v-3.282c0-5.71,1.047-10.747,3.142-15.11c2.095-4.363,5.097-7.731,9.006-10.106
	s8.359-3.563,13.349-3.563c4.937,0,9.339,1.175,13.208,3.522c3.869,2.349,6.878,5.69,9.026,10.026
	c2.147,4.337,3.235,9.307,3.262,14.91V793.289z M101.148,790.847c0-5.79-0.968-10.187-2.902-13.188
	c-1.935-3.003-4.703-4.504-8.305-4.504c-7.045,0-10.767,5.284-11.167,15.851l-0.04,4.283c0,5.711,0.947,10.101,2.842,13.169
	c1.895,3.068,4.709,4.603,8.446,4.603c3.548,0,6.285-1.507,8.206-4.522s2.896-7.352,2.922-13.009V790.847z"/>
<path d="M156.826,796.491h-22.095v13.929h26.098v10.808h-40.146v-58.278h40.227v10.847h-26.178v12.288h22.095V796.491z"/>
<path d="M166.552,821.227v-58.278h20.934c7.498,0,13.202,1.374,17.111,4.122c3.909,2.749,5.863,6.738,5.863,11.969
	c0,3.016-0.693,5.59-2.081,7.725s-3.429,3.709-6.124,4.724c3.042,0.8,5.377,2.295,7.005,4.482c1.627,2.188,2.441,4.857,2.441,8.006
	c0,5.71-1.808,10-5.424,12.868c-3.616,2.869-8.973,4.33-16.07,4.383H166.552z M180.601,787.245h7.325
	c3.068-0.026,5.256-0.589,6.564-1.687c1.307-1.097,1.961-2.716,1.961-4.857c0-2.462-0.707-4.235-2.121-5.319
	c-1.415-1.083-3.696-1.626-6.845-1.626h-6.885V787.245z M180.601,796.451v13.969h9.206c2.535,0,4.483-0.58,5.844-1.74
	c1.361-1.161,2.042-2.796,2.042-4.903c0-4.856-2.416-7.298-7.245-7.325H180.601z"/>
<path d="M263.137,762.949v38.145c0,4.323-0.921,8.065-2.762,11.228c-1.842,3.162-4.483,5.571-7.926,7.226s-7.512,2.481-12.208,2.481
	c-7.099,0-12.688-1.842-16.771-5.523c-4.083-3.683-6.164-8.727-6.244-15.131v-38.425h14.129v38.705
	c0.16,6.378,3.122,9.566,8.886,9.566c2.908,0,5.11-0.801,6.604-2.401s2.241-4.203,2.241-7.806v-38.064H263.137z"/>
<path d="M319.054,801.494c-0.187,4.057-1.28,7.639-3.282,10.747c-2.001,3.109-4.81,5.518-8.425,7.226
	c-3.616,1.708-7.745,2.562-12.389,2.562c-7.658,0-13.688-2.495-18.092-7.485c-4.403-4.989-6.604-12.034-6.604-21.134v-2.882
	c0-5.71,0.994-10.707,2.982-14.99c1.987-4.282,4.85-7.591,8.585-9.927c3.736-2.334,8.059-3.502,12.969-3.502
	c7.071,0,12.755,1.861,17.052,5.584c4.296,3.723,6.737,8.853,7.324,15.39h-14.009c-0.107-3.549-1.001-6.097-2.682-7.645
	c-1.682-1.548-4.243-2.322-7.686-2.322c-3.496,0-6.058,1.309-7.685,3.923c-1.628,2.615-2.482,6.792-2.562,12.528v4.123
	c0,6.218,0.78,10.661,2.341,13.329c1.562,2.668,4.249,4.002,8.065,4.002c3.229,0,5.697-0.76,7.405-2.281
	c1.707-1.521,2.614-3.936,2.722-7.245H319.054z"/>
<path d="M345.512,799.533l-5.764,6.324v15.37H325.7v-58.278h14.049v25.696l4.883-7.404l12.568-18.292h17.372l-19.693,25.776
	l19.693,32.502H357.92L345.512,799.533z"/>
<path d="M379.296,781.201l-5.924-3.202c2.215-3.843,3.349-7.605,3.402-11.287v-6.965h9.847v6.524c0,2.481-0.714,5.13-2.142,7.945
	S381.325,779.359,379.296,781.201z"/>
<path d="M422.086,805.737c0-2.055-0.728-3.655-2.182-4.803c-1.455-1.147-4.01-2.335-7.665-3.563
	c-3.656-1.228-6.645-2.415-8.966-3.563c-7.552-3.709-11.327-8.806-11.327-15.29c0-3.229,0.94-6.077,2.821-8.546
	c1.882-2.468,4.543-4.39,7.985-5.764s7.312-2.062,11.607-2.062c4.189,0,7.945,0.747,11.268,2.241
	c3.322,1.495,5.904,3.623,7.745,6.385c1.842,2.762,2.762,5.917,2.762,9.466h-14.009c0-2.375-0.728-4.216-2.182-5.523
	c-1.455-1.308-3.422-1.961-5.903-1.961c-2.509,0-4.49,0.554-5.944,1.661c-1.455,1.107-2.182,2.515-2.182,4.223
	c0,1.494,0.801,2.849,2.401,4.063c1.602,1.215,4.416,2.469,8.446,3.763c4.028,1.294,7.338,2.688,9.926,4.183
	c6.298,3.629,9.446,8.633,9.446,15.01c0,5.097-1.921,9.1-5.764,12.008c-3.843,2.909-9.112,4.363-15.811,4.363
	c-4.723,0-8.999-0.847-12.828-2.542c-3.829-1.694-6.711-4.016-8.646-6.965c-1.936-2.948-2.902-6.344-2.902-10.187h14.09
	c0,3.122,0.807,5.424,2.421,6.904c1.614,1.481,4.236,2.222,7.865,2.222c2.322,0,4.156-0.5,5.504-1.501
	S422.086,807.551,422.086,805.737z"/>
<path d="M158.713,878.983h-7.605v20.613h-14.049v-58.278h22.935c6.911,0,12.314,1.532,16.211,4.598
	c3.896,3.065,5.844,7.397,5.844,12.995c0,4.052-0.82,7.41-2.462,10.076c-1.641,2.665-4.209,4.825-7.705,6.478l12.168,23.531v0.601
	H169L158.713,878.983z M151.108,868.175h8.886c2.668,0,4.677-0.701,6.024-2.106c1.347-1.404,2.021-3.364,2.021-5.879
	c0-2.514-0.681-4.487-2.042-5.918c-1.36-1.431-3.362-2.147-6.004-2.147h-8.886V868.175z"/>
<path d="M233.245,841.318v38.145c0,4.323-0.921,8.065-2.762,11.228c-1.842,3.162-4.483,5.571-7.926,7.226s-7.512,2.481-12.208,2.481
	c-7.099,0-12.688-1.842-16.771-5.523c-4.083-3.683-6.164-8.727-6.244-15.131v-38.425h14.129v38.705
	c0.16,6.378,3.122,9.566,8.886,9.566c2.908,0,5.11-0.801,6.604-2.401s2.241-4.203,2.241-7.806v-38.064H233.245z"/>
<path d="M256.98,899.596h-14.01v-58.278h14.01V899.596z"/>
<path d="M315.418,899.596h-13.97l-20.653-36.264v36.264h-14.049v-58.278h14.049l20.613,36.264v-36.264h14.01V899.596z"/>
</svg>
