<?xml version="1.0" encoding="utf-8"?>
<!-- Generator: Adobe Illustrator 14.0.0, SVG Export Plug-In . SVG Version: 6.00 Build 43363)  -->
<!DOCTYPE svg PUBLIC "-//W3C//DTD SVG 1.1//EN" "http://www.w3.org/Graphics/SVG/1.1/DTD/svg11.dtd">
<svg version="1.1" id="Layer_1" xmlns="http://www.w3.org/2000/svg" xmlns:xlink="http://www.w3.org/1999/xlink" x="0px" y="0px"
	 width="450px" height="450px" viewBox="0 0 450 450" enable-background="new 0 0 450 450" xml:space="preserve">
<g>
	<g>
		<path d="M420.238,66.464H29.762c-11.046,0-20-8.954-20-20s8.954-20,20-20h390.476c11.046,0,20,8.954,20,20
			S431.284,66.464,420.238,66.464L420.238,66.464z"/>
	</g>
	<g>
		<path d="M420.238,187.954H29.762c-11.046,0-20-8.954-20-20s8.954-20,20-20h390.476c11.046,0,20,8.954,20,20
			S431.284,187.954,420.238,187.954L420.238,187.954z"/>
	</g>
	<g>
		<path d="M420.238,309.443H29.762c-11.046,0-20-8.954-20-20s8.954-20,20-20h390.476c11.046,0,20,8.954,20,20
			S431.284,309.443,420.238,309.443L420.238,309.443z"/>
	</g>
	<g>
		<path d="M420.238,430.933H29.762c-11.046,0-20-8.954-20-20s8.954-20,20-20h390.476c11.046,0,20,8.954,20,20
			S431.284,430.933,420.238,430.933L420.238,430.933z"/>
	</g>
</g>
</svg>
