<?xml version="1.0" encoding="utf-8"?>
<!-- Generator: Adobe Illustrator 14.0.0, SVG Export Plug-In . SVG Version: 6.00 Build 43363)  -->
<!DOCTYPE svg PUBLIC "-//W3C//DTD SVG 1.1//EN" "http://www.w3.org/Graphics/SVG/1.1/DTD/svg11.dtd">
<svg version="1.1" id="Layer_1" xmlns="http://www.w3.org/2000/svg" xmlns:xlink="http://www.w3.org/1999/xlink" x="0px" y="0px"
	 width="450px" height="450px" viewBox="0 0 450 450" enable-background="new 0 0 450 450" xml:space="preserve">
<path d="M447.304,399.229c-3.749-3.749-10.718-3.446-18.503,0.062c0.351,1.939,0.055,4.26-0.903,6.837
	c-1.532,4.124-4.618,8.544-8.689,12.449c-4.073,3.905-8.685,6.865-12.987,8.337c-0.479,0.164-0.95,0.307-1.411,0.432
	c-1.858,0.497-3.557,0.652-5.068,0.505c-3.919,8.163-4.412,15.553-0.511,19.453c6.454,6.455,22.449,0.926,35.726-12.349
	c0.062-0.063,0.122-0.128,0.185-0.191c0.012-0.009,0.023-0.019,0.034-0.029c0.015-0.016,0.028-0.035,0.044-0.051
	C448.301,421.462,453.715,405.641,447.304,399.229z"/>
<g>
	<path d="M367.696,330.206c-24.138-24.137-48.087-43.801-67.157-55.971c-2.653,4.839-6.363,9.803-11.03,14.536l-0.206,0.212
		c-0.018,0.018-0.036,0.033-0.053,0.051l-0.127,0.13c-4.496,4.496-9.444,8.273-14.373,11.05
		c12.176,19.05,31.811,42.953,55.898,67.041c24.728,24.728,49.261,44.765,68.549,56.854c1.435,0.438,3.469,0.259,5.85-0.555
		c3.778-1.291,7.882-3.944,11.559-7.469c3.677-3.525,6.441-7.462,7.787-11.081c0.838-2.256,1.025-4.178,0.593-5.548
		C412.944,380.065,392.726,355.236,367.696,330.206z"/>
	<path d="M243.098,258.688l12.687,12.689c-7.871,11.021-10.312,22.168-5.185,27.296c4.309,4.308,12.869,3.271,22.034-1.841
		c0.005,0.007,0.01,0.013,0.013,0.02c4.559-2.545,9.269-6.093,13.677-10.501c0.063-0.063,0.123-0.127,0.187-0.19
		c0.01-0.011,0.022-0.02,0.032-0.029c0.016-0.017,0.029-0.034,0.046-0.051c4.466-4.515,8.036-9.33,10.549-13.973
		c-0.003-0.002-0.006-0.002-0.009-0.003c1.517-2.797,2.648-5.528,3.358-8.094c0.004-0.011,0.006-0.021,0.009-0.031
		c0.28-1.017,0.496-2.005,0.642-2.963c0.004-0.025,0.006-0.05,0.01-0.075c0.062-0.408,0.105-0.809,0.142-1.204
		c0.011-0.114,0.02-0.228,0.027-0.341c0.024-0.316,0.036-0.628,0.042-0.937c0.004-0.117,0.008-0.238,0.009-0.354
		c0-0.379-0.013-0.752-0.04-1.117c-0.012-0.155-0.033-0.307-0.049-0.461c-0.023-0.208-0.048-0.414-0.078-0.618
		c-0.03-0.193-0.066-0.383-0.105-0.569c-0.03-0.147-0.064-0.292-0.099-0.437c-0.052-0.206-0.103-0.413-0.163-0.612
		c-0.014-0.047-0.032-0.09-0.048-0.135c-0.159-0.496-0.354-0.969-0.582-1.416c-0.017-0.03-0.03-0.061-0.045-0.091
		c-0.12-0.229-0.253-0.45-0.392-0.665c-0.02-0.033-0.043-0.066-0.064-0.098c-0.301-0.451-0.643-0.874-1.027-1.261l0.012-0.013
		c-0.004-0.005-0.008-0.01-0.013-0.015c-5.127-5.128-16.273-2.687-27.296,5.185l-12.689-12.687L243.098,258.688z"/>
</g>
<path d="M147.07,1.689C67.764,1.689,3.474,65.98,3.474,145.286S67.764,288.883,147.07,288.883
	c79.307,0,143.597-64.291,143.597-143.597S226.377,1.689,147.07,1.689z M147.07,275.839c-72.102,0-130.553-58.451-130.553-130.553
	S74.968,14.733,147.07,14.733c72.103,0,130.553,58.451,130.553,130.553S219.173,275.839,147.07,275.839z"/>
</svg>
