<?xml version="1.0" encoding="utf-8"?>
<!-- Generator: Adobe Illustrator 14.0.0, SVG Export Plug-In . SVG Version: 6.00 Build 43363)  -->
<!DOCTYPE svg PUBLIC "-//W3C//DTD SVG 1.1//EN" "http://www.w3.org/Graphics/SVG/1.1/DTD/svg11.dtd">
<svg version="1.1" id="Layer_1" xmlns="http://www.w3.org/2000/svg" xmlns:xlink="http://www.w3.org/1999/xlink" x="0px" y="0px"
	 width="792px" height="792px" viewBox="0 0 792 792" enable-background="new 0 0 792 792" xml:space="preserve">
<path d="M708.808,234.055c0.479,6.93,0.479,13.86,0.479,20.854c0,213.105-162.232,458.881-458.881,458.881v-0.128
	C162.775,713.79,76.964,688.688,3.193,641.36c12.742,1.533,25.548,2.3,38.387,2.331c72.621,0.064,143.167-24.303,200.299-69.172
	c-69.013-1.31-129.53-46.307-150.672-111.998c24.175,4.663,49.085,3.705,72.813-2.778C88.781,444.542,34.65,378.436,34.65,301.663
	v-2.044c22.419,12.487,47.52,19.417,73.196,20.183c-70.865-47.36-92.709-141.634-49.915-215.341
	c81.882,100.756,202.694,162.009,332.384,168.492c-12.998-56.015,4.759-114.712,46.658-154.089
	c64.956-61.061,167.118-57.931,228.179,6.994c36.119-7.122,70.737-20.375,102.417-39.153c-12.04,37.333-37.236,69.044-70.896,89.195
	c31.967-3.768,63.2-12.327,92.612-25.389C767.633,182.958,740.36,211.221,708.808,234.055L708.808,234.055z"/>
</svg>
